<svg xmlns="http://www.w3.org/2000/svg" xmlns:xlink="http://www.w3.org/1999/xlink" width="500" zoomAndPan="magnify" viewBox="0 0 375 374.999991" height="500" preserveAspectRatio="xMidYMid meet" version="1.2"><defs><clipPath id="a5e02307ba"><path d="M 236.296875 195.847656 L 276.046875 195.847656 L 276.046875 243.847656 L 236.296875 243.847656 Z M 236.296875 195.847656 "/></clipPath><clipPath id="b449981e99"><path d="M 158.546875 97.128906 L 198.296875 97.128906 L 198.296875 145.128906 L 158.546875 145.128906 Z M 158.546875 97.128906 "/></clipPath></defs><g id="b01a1a9041"><g style="fill:#ff9a12;fill-opacity:1;"><g transform="translate(104.88311, 236.394002)"><path style="stroke:none" d="M 38.679688 2.675781 C 25.796875 2.675781 16.445312 -0.566406 10.625 -7.058594 C 4.847656 -13.503906 1.957031 -23.777344 1.957031 -37.882812 L 1.957031 -52.707031 L 31.765625 -52.707031 L 31.765625 -34.203125 C 31.765625 -31.066406 32.238281 -28.761719 33.183594 -27.289062 C 34.003906 -26.011719 35.246094 -25.375 36.921875 -25.375 C 38.875 -25.375 40.191406 -25.886719 40.875 -26.910156 C 41.675781 -28.113281 42.078125 -30.277344 42.078125 -33.40625 C 42.078125 -37.71875 41.574219 -41.261719 40.5625 -44.035156 C 39.554688 -46.8125 38.277344 -49.125 36.730469 -50.96875 C 35.109375 -52.902344 32.183594 -55.933594 27.953125 -60.054688 L 16.113281 -71.898438 C 6.675781 -81.113281 1.957031 -91.355469 1.957031 -102.613281 C 1.957031 -114.6875 4.765625 -123.917969 10.378906 -130.3125 C 16.039062 -136.753906 24.246094 -139.976562 35.003906 -139.976562 C 47.804688 -139.976562 57.058594 -136.53125 62.773438 -129.640625 C 68.421875 -122.828125 71.246094 -112.273438 71.246094 -97.980469 L 71.246094 -96.582031 L 40.503906 -96.582031 L 40.320312 -107.386719 C 40.320312 -108.839844 39.941406 -109.96875 39.183594 -110.761719 C 38.449219 -111.539062 37.375 -111.925781 35.964844 -111.925781 C 34.246094 -111.925781 32.992188 -111.492188 32.203125 -110.625 C 31.378906 -109.71875 30.96875 -108.433594 30.96875 -106.769531 C 30.96875 -102.699219 33.378906 -98.402344 38.199219 -93.886719 L 54.195312 -78.53125 C 57.980469 -74.851562 61.117188 -71.359375 63.613281 -68.054688 C 66.15625 -64.683594 68.195312 -60.714844 69.734375 -56.148438 C 71.277344 -51.582031 72.046875 -46.1875 72.046875 -39.960938 C 72.046875 -26.128906 69.484375 -15.601562 64.355469 -8.382812 C 59.121094 -1.007812 50.5625 2.675781 38.679688 2.675781 Z M 38.679688 -0.121094 C 49.601562 -0.121094 57.398438 -3.414062 62.074219 -10 C 66.859375 -16.738281 69.25 -26.722656 69.25 -39.960938 C 69.25 -45.878906 68.527344 -50.980469 67.085938 -55.257812 C 65.640625 -59.535156 63.738281 -63.238281 61.378906 -66.371094 C 58.972656 -69.5625 55.929688 -72.941406 52.257812 -76.511719 L 36.285156 -91.84375 C 30.875 -96.917969 28.171875 -101.890625 28.171875 -106.769531 C 28.171875 -109.15625 28.824219 -111.066406 30.132812 -112.507812 C 31.476562 -113.984375 33.417969 -114.722656 35.964844 -114.722656 C 38.175781 -114.722656 39.925781 -114.042969 41.210938 -112.6875 C 42.480469 -111.355469 43.117188 -109.601562 43.117188 -107.433594 L 43.277344 -98.003906 L 41.878906 -97.980469 L 41.878906 -99.378906 L 69.847656 -99.378906 L 69.847656 -97.980469 L 68.449219 -97.980469 C 68.449219 -111.601562 65.839844 -121.5625 60.621094 -127.855469 C 55.464844 -134.070312 46.925781 -137.179688 35.003906 -137.179688 C 25.089844 -137.179688 17.582031 -134.273438 12.480469 -128.464844 C 7.328125 -122.601562 4.753906 -113.984375 4.753906 -102.613281 C 4.753906 -92.140625 9.199219 -82.558594 18.089844 -73.875 L 29.90625 -62.058594 C 34.203125 -57.871094 37.191406 -54.773438 38.875 -52.765625 C 40.628906 -50.667969 42.070312 -48.078125 43.191406 -44.992188 C 44.3125 -41.90625 44.875 -38.046875 44.875 -33.40625 C 44.875 -29.714844 44.316406 -27.03125 43.199219 -25.359375 C 41.964844 -23.503906 39.871094 -22.578125 36.921875 -22.578125 C 34.226562 -22.578125 32.195312 -23.644531 30.828125 -25.777344 C 29.589844 -27.714844 28.96875 -30.523438 28.96875 -34.203125 L 28.96875 -51.308594 L 30.367188 -51.308594 L 30.367188 -49.910156 L 3.355469 -49.910156 L 3.355469 -51.308594 L 4.753906 -51.308594 L 4.753906 -37.882812 C 4.753906 -24.492188 7.40625 -14.839844 12.710938 -8.925781 C 17.972656 -3.054688 26.628906 -0.121094 38.679688 -0.121094 Z M 38.679688 -0.121094 "/></g></g><g style="fill:#ff9a12;fill-opacity:1;"><g transform="translate(178.567764, 236.394002)"><path style="stroke:none" d="M 4.675781 0 L 4.675781 -138.699219 L 35.519531 -138.699219 L 48.367188 -71.871094 L 46.992188 -71.605469 L 45.59375 -71.605469 L 45.59375 -138.699219 L 74.921875 -138.699219 L 74.921875 1.398438 L 45.527344 1.398438 L 31.554688 -68.457031 L 32.925781 -68.730469 L 34.324219 -68.730469 L 34.324219 1.398438 L 4.675781 1.398438 Z M 7.472656 0 L 6.074219 0 L 6.074219 -1.398438 L 32.925781 -1.398438 L 32.925781 0 L 31.527344 0 L 31.527344 -68.730469 L 34.296875 -69.003906 L 48.042969 -0.273438 L 46.671875 0 L 46.671875 -1.398438 L 73.523438 -1.398438 L 73.523438 0 L 72.125 0 L 72.125 -137.300781 L 73.523438 -137.300781 L 73.523438 -135.902344 L 46.992188 -135.902344 L 46.992188 -137.300781 L 48.390625 -137.300781 L 48.390625 -71.605469 L 45.617188 -71.34375 L 32.992188 -137.035156 L 34.363281 -137.300781 L 34.363281 -135.902344 L 6.074219 -135.902344 L 6.074219 -137.300781 L 7.472656 -137.300781 Z M 7.472656 0 "/></g></g><g style="fill:#ff9a12;fill-opacity:1;"><g transform="translate(104.88311, 236.394002)"><path style="stroke:none" d="M 38.6875 1.28125 C 26.21875 1.28125 17.210938 -1.804688 11.671875 -7.984375 C 6.128906 -14.171875 3.359375 -24.140625 3.359375 -37.890625 L 3.359375 -51.3125 L 30.375 -51.3125 L 30.375 -34.203125 C 30.375 -27.378906 32.554688 -23.96875 36.921875 -23.96875 C 39.367188 -23.96875 41.070312 -24.6875 42.03125 -26.125 C 43 -27.570312 43.484375 -30 43.484375 -33.40625 C 43.484375 -37.882812 42.945312 -41.585938 41.875 -44.515625 C 40.8125 -47.441406 39.453125 -49.890625 37.796875 -51.859375 C 36.148438 -53.835938 33.195312 -56.90625 28.9375 -61.0625 L 17.109375 -72.890625 C 7.941406 -81.835938 3.359375 -91.75 3.359375 -102.625 C 3.359375 -114.34375 6.046875 -123.265625 11.421875 -129.390625 C 16.804688 -135.515625 24.664062 -138.578125 35 -138.578125 C 47.363281 -138.578125 56.265625 -135.300781 61.703125 -128.75 C 67.140625 -122.195312 69.859375 -111.941406 69.859375 -97.984375 L 41.875 -97.984375 L 41.71875 -107.421875 C 41.71875 -109.222656 41.210938 -110.65625 40.203125 -111.71875 C 39.191406 -112.789062 37.78125 -113.328125 35.96875 -113.328125 C 33.832031 -113.328125 32.234375 -112.738281 31.171875 -111.5625 C 30.109375 -110.394531 29.578125 -108.800781 29.578125 -106.78125 C 29.578125 -102.300781 32.132812 -97.664062 37.25 -92.875 L 53.234375 -77.53125 C 56.960938 -73.90625 60.050781 -70.46875 62.5 -67.21875 C 64.945312 -63.96875 66.914062 -60.128906 68.40625 -55.703125 C 69.90625 -51.285156 70.65625 -46.035156 70.65625 -39.953125 C 70.65625 -26.421875 68.175781 -16.164062 63.21875 -9.1875 C 58.257812 -2.207031 50.082031 1.28125 38.6875 1.28125 Z M 38.6875 1.28125 "/></g></g><g style="fill:#ff9a12;fill-opacity:1;"><g transform="translate(178.567764, 236.394002)"><path style="stroke:none" d="M 6.078125 0 L 6.078125 -137.3125 L 34.359375 -137.3125 L 47 -71.609375 L 47 -137.3125 L 73.53125 -137.3125 L 73.53125 0 L 46.671875 0 L 32.921875 -68.734375 L 32.921875 0 Z M 6.078125 0 "/></g></g><g clip-rule="nonzero" clip-path="url(#a5e02307ba)"><path style=" stroke:none;fill-rule:nonzero;fill:#ffffff;fill-opacity:1;" d="M 236.296875 226.691406 C 236.296875 222.167969 237.519531 218.496094 239.476562 215.683594 C 239.476562 221.25 240.824219 223.207031 243.757812 223.207031 C 245.714844 223.207031 247.734375 221.738281 247.734375 219.230469 C 247.734375 216.96875 246.203125 212.871094 246.203125 208.46875 C 246.203125 204.066406 247.671875 199.355469 253.664062 195.871094 C 252.320312 199.417969 251.769531 202.414062 251.769531 204.859375 C 251.769531 211.34375 255.683594 214.277344 259.167969 214.277344 C 261.980469 214.277344 264.917969 212.441406 264.917969 207.121094 C 266.8125 209.203125 267.667969 211.585938 267.667969 213.972656 C 267.667969 217.761719 265.589844 221.128906 265.589844 224.183594 C 265.589844 226.691406 267.609375 228.160156 269.566406 228.160156 C 273.050781 228.160156 274.089844 225.039062 274.089844 219.902344 C 275.128906 221.675781 276.046875 225.164062 276.046875 228.160156 C 276.046875 237.089844 267.609375 243.570312 258.191406 243.570312 C 266.140625 240.574219 267.609375 236.597656 267.609375 232.132812 C 265.652344 235.621094 263.632812 236.109375 262.65625 236.109375 C 256.660156 236.109375 263.144531 224.675781 252.6875 216.722656 C 254.398438 220.394531 255.070312 223.574219 255.070312 226.140625 C 255.070312 231.644531 252.074219 234.640625 249.199219 234.640625 C 246.753906 234.640625 244.308594 232.683594 243.332031 228.527344 C 243.332031 234.335938 245.042969 239.839844 252.6875 243.570312 C 240.761719 241.613281 236.296875 234.152344 236.296875 226.691406 Z M 236.296875 226.691406 "/></g><g clip-rule="nonzero" clip-path="url(#b449981e99)"><path style=" stroke:none;fill-rule:nonzero;fill:#ffffff;fill-opacity:1;" d="M 198.296875 114.28125 C 198.296875 118.808594 197.070312 122.476562 195.117188 125.289062 C 195.117188 119.726562 193.769531 117.769531 190.835938 117.769531 C 188.878906 117.769531 186.859375 119.234375 186.859375 121.742188 C 186.859375 124.003906 188.386719 128.101562 188.386719 132.507812 C 188.386719 136.910156 186.921875 141.617188 180.925781 145.105469 C 182.273438 141.558594 182.824219 138.558594 182.824219 136.113281 C 182.824219 129.632812 178.910156 126.695312 175.421875 126.695312 C 172.609375 126.695312 169.675781 128.53125 169.675781 133.851562 C 167.78125 131.773438 166.921875 129.386719 166.921875 127.003906 C 166.921875 123.210938 169.003906 119.847656 169.003906 116.789062 C 169.003906 114.28125 166.984375 112.8125 165.027344 112.8125 C 161.542969 112.8125 160.503906 115.933594 160.503906 121.070312 C 159.460938 119.296875 158.546875 115.8125 158.546875 112.8125 C 158.546875 103.886719 166.984375 97.402344 176.402344 97.402344 C 168.453125 100.398438 166.984375 104.375 166.984375 108.839844 C 168.941406 105.355469 170.960938 104.863281 171.9375 104.863281 C 177.929688 104.863281 171.449219 116.300781 181.90625 124.25 C 180.195312 120.582031 179.519531 117.402344 179.519531 114.832031 C 179.519531 109.328125 182.519531 106.332031 185.390625 106.332031 C 187.839844 106.332031 190.285156 108.289062 191.261719 112.449219 C 191.261719 106.636719 189.550781 101.132812 181.90625 97.402344 C 193.832031 99.359375 198.296875 106.820312 198.296875 114.28125 Z M 198.296875 114.28125 "/></g><path style="fill:none;stroke-width:4;stroke-linecap:butt;stroke-linejoin:miter;stroke:#ffffff;stroke-opacity:1;stroke-miterlimit:4;" d="M 0.00246636 1.999738 L 24.632676 1.999738 " transform="matrix(0.75,0,0,0.75,84.834088,264.781447)"/><path style="fill:none;stroke-width:4;stroke-linecap:butt;stroke-linejoin:miter;stroke:#ffffff;stroke-opacity:1;stroke-miterlimit:4;" d="M 0.000601779 1.999738 L 24.63602 1.999738 " transform="matrix(0.75,0,0,0.75,262.452674,263.281447)"/></g></svg>