<svg xmlns="http://www.w3.org/2000/svg" xmlns:xlink="http://www.w3.org/1999/xlink" width="500" zoomAndPan="magnify" viewBox="0 0 375 374.999991" height="500" preserveAspectRatio="xMidYMid meet" version="1.2"><defs><clipPath id="5340a3a90a"><path d="M 0 268.394531 L 12.742188 268.394531 L 12.742188 316.203125 L 0 316.203125 Z M 0 268.394531 "/></clipPath><clipPath id="fb4ea135ca"><path d="M 131.25 111.6875 L 243.75 111.6875 L 243.75 132.082031 L 131.25 132.082031 Z M 131.25 111.6875 "/></clipPath><clipPath id="9ba4b48adc"><path d="M 209.578125 150.210938 L 224.167969 150.210938 L 224.167969 206.898438 L 209.578125 206.898438 Z M 209.578125 150.210938 "/></clipPath><clipPath id="809570be92"><path d="M 213.769531 162.855469 L 219.976562 162.855469 L 219.976562 194.253906 L 213.769531 194.253906 Z M 213.769531 162.855469 "/></clipPath></defs><g id="9799988074"><g style="fill:#000000;fill-opacity:1;"><g transform="translate(54.892574, 220.166871)"><path style="stroke:none" d="M 66.015625 -152.359375 C 74.117188 -152.359375 82.039062 -151.175781 89.78125 -148.8125 C 97.519531 -146.457031 103.265625 -144.128906 107.015625 -141.828125 L 112.453125 -138.203125 L 98.671875 -111 C 97.578125 -111.726562 96.0625 -112.664062 94.125 -113.8125 C 92.195312 -114.957031 88.570312 -116.5 83.25 -118.4375 C 77.925781 -120.375 72.96875 -121.34375 68.375 -121.34375 C 62.695312 -121.34375 58.316406 -120.128906 55.234375 -117.703125 C 52.148438 -115.285156 50.609375 -112.023438 50.609375 -107.921875 C 50.609375 -105.859375 51.332031 -103.953125 52.78125 -102.203125 C 54.226562 -100.453125 56.703125 -98.578125 60.203125 -96.578125 C 63.710938 -94.585938 66.796875 -92.988281 69.453125 -91.78125 C 72.117188 -90.570312 76.234375 -88.753906 81.796875 -86.328125 C 91.472656 -82.222656 99.726562 -76.632812 106.5625 -69.5625 C 113.394531 -62.488281 116.8125 -54.476562 116.8125 -45.53125 C 116.8125 -36.9375 115.269531 -29.4375 112.1875 -23.03125 C 109.101562 -16.625 104.867188 -11.609375 99.484375 -7.984375 C 94.097656 -4.359375 88.140625 -1.671875 81.609375 0.078125 C 75.085938 1.835938 68.015625 2.71875 60.390625 2.71875 C 53.867188 2.71875 47.460938 2.050781 41.171875 0.71875 C 34.878906 -0.601562 29.617188 -2.257812 25.390625 -4.25 C 21.160156 -6.25 17.351562 -8.21875 13.96875 -10.15625 C 10.582031 -12.09375 8.101562 -13.722656 6.53125 -15.046875 L 4.171875 -17.046875 L 21.21875 -45.703125 C 22.664062 -44.492188 24.660156 -42.953125 27.203125 -41.078125 C 29.742188 -39.203125 34.25 -36.691406 40.71875 -33.546875 C 47.1875 -30.410156 52.898438 -28.84375 57.859375 -28.84375 C 72.242188 -28.84375 79.4375 -33.738281 79.4375 -43.53125 C 79.4375 -45.582031 78.921875 -47.484375 77.890625 -49.234375 C 76.867188 -50.992188 75.054688 -52.75 72.453125 -54.5 C 69.859375 -56.257812 67.5625 -57.648438 65.5625 -58.671875 C 63.570312 -59.703125 60.304688 -61.273438 55.765625 -63.390625 C 51.234375 -65.503906 47.878906 -67.109375 45.703125 -68.203125 C 36.640625 -72.671875 29.628906 -78.257812 24.671875 -84.96875 C 19.710938 -91.6875 17.234375 -98.914062 17.234375 -106.65625 C 17.234375 -120.070312 22.1875 -131.039062 32.09375 -139.5625 C 42.007812 -148.09375 53.316406 -152.359375 66.015625 -152.359375 Z M 66.015625 -152.359375 "/></g></g><g style="fill:#000000;fill-opacity:1;"><g transform="translate(176.768285, 220.166871)"><path style="stroke:none" d="M 44.984375 -92.859375 L 44.984375 0 L 10.875 0 L 10.875 -149.640625 L 44.984375 -149.640625 L 104.46875 -56.765625 L 104.828125 -56.765625 L 104.828125 -149.640625 L 138.9375 -149.640625 L 138.9375 0 L 104.828125 0 L 45.34375 -92.859375 Z M 44.984375 -92.859375 "/></g></g><g clip-rule="nonzero" clip-path="url(#5340a3a90a)"><path style=" stroke:none;fill-rule:nonzero;fill:#ffffff;fill-opacity:1;" d="M -29.078125 268.394531 L 12.742188 268.394531 L 12.742188 316.261719 L -29.078125 316.261719 Z M -29.078125 268.394531 "/></g><g clip-rule="nonzero" clip-path="url(#fb4ea135ca)"><path style=" stroke:none;fill-rule:nonzero;fill:#ffffff;fill-opacity:1;" d="M 131.25 111.6875 L 243.730469 111.6875 L 243.730469 132.082031 L 131.25 132.082031 Z M 131.25 111.6875 "/></g><g clip-rule="nonzero" clip-path="url(#9ba4b48adc)"><path style=" stroke:none;fill-rule:nonzero;fill:#ffffff;fill-opacity:1;" d="M 209.578125 150.210938 L 224.167969 150.210938 L 224.167969 206.910156 L 209.578125 206.910156 Z M 209.578125 150.210938 "/></g><g clip-rule="nonzero" clip-path="url(#809570be92)"><path style=" stroke:none;fill-rule:nonzero;fill:#000000;fill-opacity:1;" d="M 213.769531 162.855469 L 219.976562 162.855469 L 219.976562 194.257812 L 213.769531 194.257812 Z M 213.769531 162.855469 "/></g></g></svg>